<?xml version="1.0" encoding="UTF-8" standalone="no"?>
<!DOCTYPE svg PUBLIC "-//W3C//DTD SVG 1.1//EN"
 "http://www.w3.org/Graphics/SVG/1.1/DTD/svg11.dtd">
<!-- Generated by graphviz version 2.38.0 (20140413.2041)
 -->
<!-- Title: pastafarianism Pages: 1 -->
<svg width="448pt" height="260pt"
 viewBox="0.00 0.00 448.48 260.00" xmlns="http://www.w3.org/2000/svg" xmlns:xlink="http://www.w3.org/1999/xlink">
<g id="graph0" class="graph" transform="scale(1 1) rotate(0) translate(4 256)">
<title>pastafarianism</title>
<polygon fill="white" stroke="none" points="-4,4 -4,-256 444.478,-256 444.478,4 -4,4"/>
<!-- Planner -->
<g id="node1" class="node"><title>Planner</title>
<polygon fill="cyan" stroke="black" points="242.753,-226.544 242.753,-241.456 226.648,-252 203.872,-252 187.767,-241.456 187.767,-226.544 203.872,-216 226.648,-216 242.753,-226.544"/>
<text text-anchor="middle" x="215.26" y="-231.8" font-family="Times New Roman,serif" font-size="9.00">Planner</text>
</g>
<!-- PlanAccelerate -->
<g id="node2" class="node"><title>PlanAccelerate</title>
<polygon fill="orange" stroke="black" points="161.26,-180 91.2598,-180 91.2598,-144 161.26,-144 161.26,-180"/>
<text text-anchor="middle" x="126.26" y="-159.8" font-family="Times New Roman,serif" font-size="9.00">PlanAccelerate</text>
</g>
<!-- Planner&#45;&gt;PlanAccelerate -->
<g id="edge1" class="edge"><title>Planner&#45;&gt;PlanAccelerate</title>
<path fill="none" stroke="black" d="M198.1,-219.503C186.192,-210.138 170.021,-197.419 156.036,-186.419"/>
<polygon fill="black" stroke="black" points="158.127,-183.611 148.103,-180.18 153.799,-189.113 158.127,-183.611"/>
</g>
<!-- PlanSwitch -->
<g id="node5" class="node"><title>PlanSwitch</title>
<polygon fill="cyan" stroke="black" points="251.001,-154.544 251.001,-169.456 230.064,-180 200.455,-180 179.519,-169.456 179.519,-154.544 200.455,-144 230.064,-144 251.001,-154.544"/>
<text text-anchor="middle" x="215.26" y="-159.8" font-family="Times New Roman,serif" font-size="9.00">PlanSwitch</text>
</g>
<!-- Planner&#45;&gt;PlanSwitch -->
<g id="edge4" class="edge"><title>Planner&#45;&gt;PlanSwitch</title>
<path fill="none" stroke="black" d="M215.26,-215.697C215.26,-207.983 215.26,-198.712 215.26,-190.112"/>
<polygon fill="black" stroke="black" points="218.76,-190.104 215.26,-180.104 211.76,-190.104 218.76,-190.104"/>
</g>
<!-- NoAction -->
<g id="node12" class="node"><title>NoAction</title>
<ellipse fill="gray" stroke="black" cx="299.26" cy="-162" rx="30.6995" ry="18"/>
<text text-anchor="middle" x="299.26" y="-159.8" font-family="Times New Roman,serif" font-size="9.00">NoAction</text>
</g>
<!-- Planner&#45;&gt;NoAction -->
<g id="edge11" class="edge"><title>Planner&#45;&gt;NoAction</title>
<path fill="none" stroke="black" d="M231.856,-219.17C244.086,-208.978 260.92,-194.95 274.705,-183.462"/>
<polygon fill="black" stroke="black" points="276.97,-186.131 282.411,-177.041 272.488,-180.754 276.97,-186.131"/>
</g>
<!-- CanAccelerate -->
<g id="node3" class="node"><title>CanAccelerate</title>
<ellipse fill="gray" stroke="black" cx="39.2598" cy="-90" rx="39.0211" ry="18"/>
<text text-anchor="middle" x="39.2598" y="-87.8" font-family="Times New Roman,serif" font-size="9.00">CanAccelerate</text>
</g>
<!-- PlanAccelerate&#45;&gt;CanAccelerate -->
<g id="edge2" class="edge"><title>PlanAccelerate&#45;&gt;CanAccelerate</title>
<path fill="none" stroke="black" d="M104.754,-143.697C92.9489,-134.198 78.2109,-122.34 65.7065,-112.279"/>
<polygon fill="black" stroke="black" points="67.8504,-109.512 57.8651,-105.97 63.4622,-114.966 67.8504,-109.512"/>
</g>
<!-- Accelerate -->
<g id="node4" class="node"><title>Accelerate</title>
<ellipse fill="gray" stroke="black" cx="127.26" cy="-90" rx="31.3548" ry="18"/>
<text text-anchor="middle" x="127.26" y="-87.8" font-family="Times New Roman,serif" font-size="9.00">Accelerate</text>
</g>
<!-- PlanAccelerate&#45;&gt;Accelerate -->
<g id="edge3" class="edge"><title>PlanAccelerate&#45;&gt;Accelerate</title>
<path fill="none" stroke="black" d="M126.507,-143.697C126.617,-135.983 126.75,-126.712 126.872,-118.112"/>
<polygon fill="black" stroke="black" points="130.372,-118.153 127.015,-108.104 123.373,-118.053 130.372,-118.153"/>
</g>
<!-- PlamSwitchLeft -->
<g id="node6" class="node"><title>PlamSwitchLeft</title>
<polygon fill="orange" stroke="black" points="251.26,-108 177.26,-108 177.26,-72 251.26,-72 251.26,-108"/>
<text text-anchor="middle" x="214.26" y="-87.8" font-family="Times New Roman,serif" font-size="9.00">PlamSwitchLeft</text>
</g>
<!-- PlanSwitch&#45;&gt;PlamSwitchLeft -->
<g id="edge5" class="edge"><title>PlanSwitch&#45;&gt;PlamSwitchLeft</title>
<path fill="none" stroke="black" d="M215.013,-143.697C214.902,-135.983 214.77,-126.712 214.647,-118.112"/>
<polygon fill="black" stroke="black" points="218.147,-118.053 214.504,-108.104 211.147,-118.153 218.147,-118.053"/>
</g>
<!-- PlanSwitchRight -->
<g id="node9" class="node"><title>PlanSwitchRight</title>
<polygon fill="orange" stroke="black" points="346.76,-108 269.76,-108 269.76,-72 346.76,-72 346.76,-108"/>
<text text-anchor="middle" x="308.26" y="-87.8" font-family="Times New Roman,serif" font-size="9.00">PlanSwitchRight</text>
</g>
<!-- PlanSwitch&#45;&gt;PlanSwitchRight -->
<g id="edge8" class="edge"><title>PlanSwitch&#45;&gt;PlanSwitchRight</title>
<path fill="none" stroke="black" d="M234.983,-146.155C247.258,-136.916 263.309,-124.834 277.259,-114.334"/>
<polygon fill="black" stroke="black" points="279.736,-116.85 285.621,-108.04 275.526,-111.257 279.736,-116.85"/>
</g>
<!-- CanSwitchLeft -->
<g id="node7" class="node"><title>CanSwitchLeft</title>
<ellipse fill="gray" stroke="black" cx="123.26" cy="-18" rx="40.9837" ry="18"/>
<text text-anchor="middle" x="123.26" y="-15.8" font-family="Times New Roman,serif" font-size="9.00">CanSwitchLeft</text>
</g>
<!-- PlamSwitchLeft&#45;&gt;CanSwitchLeft -->
<g id="edge6" class="edge"><title>PlamSwitchLeft&#45;&gt;CanSwitchLeft</title>
<path fill="none" stroke="black" d="M191.765,-71.6966C179.417,-62.1982 164.002,-50.3399 150.922,-40.2789"/>
<polygon fill="black" stroke="black" points="152.781,-37.2927 142.721,-33.9698 148.513,-42.8411 152.781,-37.2927"/>
</g>
<!-- SwitchLeft -->
<g id="node8" class="node"><title>SwitchLeft</title>
<ellipse fill="gray" stroke="black" cx="214.26" cy="-18" rx="32.1641" ry="18"/>
<text text-anchor="middle" x="214.26" y="-15.8" font-family="Times New Roman,serif" font-size="9.00">SwitchLeft</text>
</g>
<!-- PlamSwitchLeft&#45;&gt;SwitchLeft -->
<g id="edge7" class="edge"><title>PlamSwitchLeft&#45;&gt;SwitchLeft</title>
<path fill="none" stroke="black" d="M214.26,-71.6966C214.26,-63.9827 214.26,-54.7125 214.26,-46.1124"/>
<polygon fill="black" stroke="black" points="217.76,-46.1043 214.26,-36.1043 210.76,-46.1044 217.76,-46.1043"/>
</g>
<!-- CanSwitchRight -->
<g id="node10" class="node"><title>CanSwitchRight</title>
<ellipse fill="gray" stroke="black" cx="308.26" cy="-18" rx="43.1034" ry="18"/>
<text text-anchor="middle" x="308.26" y="-15.8" font-family="Times New Roman,serif" font-size="9.00">CanSwitchRight</text>
</g>
<!-- PlanSwitchRight&#45;&gt;CanSwitchRight -->
<g id="edge9" class="edge"><title>PlanSwitchRight&#45;&gt;CanSwitchRight</title>
<path fill="none" stroke="black" d="M308.26,-71.6966C308.26,-63.9827 308.26,-54.7125 308.26,-46.1124"/>
<polygon fill="black" stroke="black" points="311.76,-46.1043 308.26,-36.1043 304.76,-46.1044 311.76,-46.1043"/>
</g>
<!-- SwitchRight -->
<g id="node11" class="node"><title>SwitchRight</title>
<ellipse fill="gray" stroke="black" cx="405.26" cy="-18" rx="35.4381" ry="18"/>
<text text-anchor="middle" x="405.26" y="-15.8" font-family="Times New Roman,serif" font-size="9.00">SwitchRight</text>
</g>
<!-- PlanSwitchRight&#45;&gt;SwitchRight -->
<g id="edge10" class="edge"><title>PlanSwitchRight&#45;&gt;SwitchRight</title>
<path fill="none" stroke="black" d="M332.237,-71.6966C345.897,-61.8395 363.077,-49.441 377.342,-39.1471"/>
<polygon fill="black" stroke="black" points="379.728,-41.7412 385.789,-33.0511 375.632,-36.0649 379.728,-41.7412"/>
</g>
</g>
</svg>
