<?xml version="1.0" encoding="UTF-8" standalone="no"?>
<!DOCTYPE svg PUBLIC "-//W3C//DTD SVG 1.1//EN"
 "http://www.w3.org/Graphics/SVG/1.1/DTD/svg11.dtd">
<!-- Generated by graphviz version 2.38.0 (20140413.2041)
 -->
<!-- Title: pastafarianism Pages: 1 -->
<svg width="152pt" height="188pt"
 viewBox="0.00 0.00 152.37 188.00" xmlns="http://www.w3.org/2000/svg" xmlns:xlink="http://www.w3.org/1999/xlink">
<g id="graph0" class="graph" transform="scale(1 1) rotate(0) translate(4 184)">
<title>pastafarianism</title>
<polygon fill="white" stroke="none" points="-4,4 -4,-184 148.373,-184 148.373,4 -4,4"/>
<!-- Life -->
<g id="node1" class="node"><title>Life</title>
<polygon fill="orange" stroke="black" points="94,-180 40,-180 40,-144 94,-144 94,-180"/>
<text text-anchor="middle" x="67" y="-159.8" font-family="Times New Roman,serif" font-size="9.00">Life</text>
</g>
<!-- Inverter -->
<g id="node2" class="node"><title>Inverter</title>
<ellipse fill="ghostwhite" stroke="black" cx="29" cy="-90" rx="27" ry="18"/>
<text text-anchor="middle" x="29" y="-87.8" font-family="Times New Roman,serif" font-size="9.00">Inverter</text>
</g>
<!-- Life&#45;&gt;Inverter -->
<g id="edge1" class="edge"><title>Life&#45;&gt;Inverter</title>
<path fill="none" stroke="black" d="M57.6067,-143.697C53.1046,-135.403 47.6259,-125.311 42.6727,-116.187"/>
<polygon fill="black" stroke="black" points="45.6111,-114.263 37.7642,-107.145 39.4592,-117.603 45.6111,-114.263"/>
</g>
<!-- Timeout -->
<g id="node4" class="node"><title>Timeout</title>
<ellipse fill="ghostwhite" stroke="black" cx="105" cy="-90" rx="27.2716" ry="18"/>
<text text-anchor="middle" x="105" y="-87.8" font-family="Times New Roman,serif" font-size="9.00">Timeout</text>
</g>
<!-- Life&#45;&gt;Timeout -->
<g id="edge3" class="edge"><title>Life&#45;&gt;Timeout</title>
<path fill="none" stroke="black" d="M76.3933,-143.697C80.8954,-135.403 86.3741,-125.311 91.3273,-116.187"/>
<polygon fill="black" stroke="black" points="94.5408,-117.603 96.2358,-107.145 88.3889,-114.263 94.5408,-117.603"/>
</g>
<!-- Busy? -->
<g id="node3" class="node"><title>Busy?</title>
<ellipse fill="gray" stroke="black" cx="27" cy="-18" rx="27" ry="18"/>
<text text-anchor="middle" x="27" y="-15.8" font-family="Times New Roman,serif" font-size="9.00">Busy?</text>
</g>
<!-- Inverter&#45;&gt;Busy? -->
<g id="edge2" class="edge"><title>Inverter&#45;&gt;Busy?</title>
<path fill="none" stroke="black" d="M28.5056,-71.6966C28.2852,-63.9827 28.0204,-54.7125 27.7746,-46.1124"/>
<polygon fill="black" stroke="black" points="31.273,-46.0003 27.4887,-36.1043 24.2758,-46.2002 31.273,-46.0003"/>
</g>
<!-- Have a Beer! -->
<g id="node5" class="node"><title>Have a Beer!</title>
<ellipse fill="gray" stroke="black" cx="108" cy="-18" rx="36.2466" ry="18"/>
<text text-anchor="middle" x="108" y="-15.8" font-family="Times New Roman,serif" font-size="9.00">Have a Beer!</text>
</g>
<!-- Timeout&#45;&gt;Have a Beer! -->
<g id="edge4" class="edge"><title>Timeout&#45;&gt;Have a Beer!</title>
<path fill="none" stroke="black" d="M105.742,-71.6966C106.072,-63.9827 106.469,-54.7125 106.838,-46.1124"/>
<polygon fill="black" stroke="black" points="110.335,-46.2451 107.267,-36.1043 103.342,-45.9453 110.335,-46.2451"/>
</g>
</g>
</svg>
