<?xml version="1.0" encoding="UTF-8" standalone="no"?>
<!DOCTYPE svg PUBLIC "-//W3C//DTD SVG 1.1//EN"
 "http://www.w3.org/Graphics/SVG/1.1/DTD/svg11.dtd">
<!-- Generated by graphviz version 2.38.0 (20140413.2041)
 -->
<!-- Title: pastafarianism Pages: 1 -->
<svg width="365pt" height="116pt"
 viewBox="0.00 0.00 364.79 116.00" xmlns="http://www.w3.org/2000/svg" xmlns:xlink="http://www.w3.org/1999/xlink">
<g id="graph0" class="graph" transform="scale(1 1) rotate(0) translate(4 112)">
<title>pastafarianism</title>
<polygon fill="white" stroke="none" points="-4,4 -4,-112 360.788,-112 360.788,4 -4,4"/>
<!-- Blackboard Demo -->
<g id="node1" class="node"><title>Blackboard Demo</title>
<polygon fill="orange" stroke="black" points="195.832,-108 114.832,-108 114.832,-72 195.832,-72 195.832,-108"/>
<text text-anchor="middle" x="155.332" y="-87.8" font-family="Times New Roman,serif" font-size="9.00">Blackboard Demo</text>
</g>
<!-- Set Nested -->
<g id="node2" class="node"><title>Set Nested</title>
<ellipse fill="gray" stroke="black" cx="32.3316" cy="-18" rx="32.1641" ry="18"/>
<text text-anchor="middle" x="32.3316" y="-15.8" font-family="Times New Roman,serif" font-size="9.00">Set Nested</text>
</g>
<!-- Blackboard Demo&#45;&gt;Set Nested -->
<g id="edge1" class="edge"><title>Blackboard Demo&#45;&gt;Set Nested</title>
<path fill="none" stroke="black" d="M125.242,-71.8761C106.418,-61.1627 82.2255,-47.3949 63.2465,-36.5939"/>
<polygon fill="black" stroke="black" points="64.8171,-33.4606 54.3948,-31.5563 61.3547,-39.5444 64.8171,-33.4606"/>
</g>
<!-- Writer -->
<g id="node3" class="node"><title>Writer</title>
<ellipse fill="gray" stroke="black" cx="109.332" cy="-18" rx="27" ry="18"/>
<text text-anchor="middle" x="109.332" y="-15.8" font-family="Times New Roman,serif" font-size="9.00">Writer</text>
</g>
<!-- Blackboard Demo&#45;&gt;Writer -->
<g id="edge2" class="edge"><title>Blackboard Demo&#45;&gt;Writer</title>
<path fill="none" stroke="black" d="M143.961,-71.6966C138.316,-63.1059 131.402,-52.585 125.24,-43.2092"/>
<polygon fill="black" stroke="black" points="128.047,-41.1062 119.63,-34.6712 122.197,-44.9504 128.047,-41.1062"/>
</g>
<!-- Check Nested Foo -->
<g id="node4" class="node"><title>Check Nested Foo</title>
<ellipse fill="gray" stroke="black" cx="202.332" cy="-18" rx="47.8403" ry="18"/>
<text text-anchor="middle" x="202.332" y="-15.8" font-family="Times New Roman,serif" font-size="9.00">Check Nested Foo</text>
</g>
<!-- Blackboard Demo&#45;&gt;Check Nested Foo -->
<g id="edge3" class="edge"><title>Blackboard Demo&#45;&gt;Check Nested Foo</title>
<path fill="none" stroke="black" d="M166.95,-71.6966C172.553,-63.3514 179.379,-53.1846 185.535,-44.0155"/>
<polygon fill="black" stroke="black" points="188.502,-45.8756 191.171,-35.6223 182.691,-41.9735 188.502,-45.8756"/>
</g>
<!-- ParamsAndState -->
<g id="node5" class="node"><title>ParamsAndState</title>
<ellipse fill="gray" stroke="black" cx="312.332" cy="-18" rx="44.412" ry="18"/>
<text text-anchor="middle" x="312.332" y="-15.8" font-family="Times New Roman,serif" font-size="9.00">ParamsAndState</text>
</g>
<!-- Blackboard Demo&#45;&gt;ParamsAndState -->
<g id="edge4" class="edge"><title>Blackboard Demo&#45;&gt;ParamsAndState</title>
<path fill="none" stroke="black" d="M193.738,-71.8761C218.262,-60.942 249.921,-46.8263 274.36,-35.9301"/>
<polygon fill="black" stroke="black" points="275.969,-39.045 283.677,-31.7761 273.118,-32.6517 275.969,-39.045"/>
</g>
</g>
</svg>
